<svg width="28" height="23" viewBox="0 0 28 23" fill="none" xmlns="http://www.w3.org/2000/svg">
<path d="M27.7062 5.64788L17.964 0.298437C17.7943 0.20529 17.5885 0.20529 17.4188 0.298437L13.7553 2.31006C13.6726 2.33307 13.5954 2.37533 13.5299 2.43374L7.67664 5.64788C7.49543 5.74744 7.38281 5.93772 7.38281 6.14437V7.3024H0.8479C0.535049 7.3024 0.281494 7.55618 0.281494 7.86881C0.281494 8.18166 0.535049 8.43522 0.8479 8.43522H7.38281V10.4743H4.13549C3.82264 10.4743 3.56908 10.7281 3.56908 11.0407C3.56908 11.3535 3.82264 11.6071 4.13549 11.6071H7.38281V14.5524H2.625C2.31215 14.5524 2.05859 14.8062 2.05859 15.1188C2.05859 15.4317 2.31215 15.6852 2.625 15.6852H7.38281V16.8435C7.38281 17.0501 7.49543 17.2404 7.67664 17.34L17.4188 22.6894C17.5038 22.7361 17.5976 22.7593 17.6914 22.7593C17.7852 22.7593 17.879 22.7361 17.964 22.6894L27.7062 17.34C27.8874 17.2404 28 17.0501 28 16.8435V14.307C28 13.9944 27.7464 13.7406 27.4336 13.7406C27.1207 13.7406 26.8672 13.9944 26.8672 14.307V16.5083L18.2578 21.2358V11.829L20.9958 10.3256V12.7116C20.9958 12.912 21.1016 13.0974 21.2739 13.1992C21.3626 13.2517 21.4624 13.278 21.5622 13.278C21.656 13.278 21.7501 13.2548 21.8352 13.2079L23.923 12.0589C24.1037 11.9593 24.2161 11.7693 24.2161 11.5626V8.55735L26.8672 7.10173V9.77579C26.8672 10.0886 27.1207 10.3422 27.4336 10.3422C27.7464 10.3422 28 10.0886 28 9.77579V6.14437C28 5.93772 27.8874 5.74744 27.7062 5.64788ZM17.125 21.2358L8.51562 16.5083V7.10173L17.125 11.829V21.2358ZM17.6914 10.8478L9.12606 6.14437L11.818 4.66618L20.3836 9.36957L17.6914 10.8478ZM21.5604 8.72329L12.9949 4.0199L13.9235 3.51014L22.4888 8.21352L21.5604 8.72329ZM23.0833 11.2279L22.1286 11.7533V9.70366L23.0833 9.17929V11.2279ZM23.6657 7.56724L15.1003 2.86386L17.6914 1.44121L26.2568 6.14437L23.6657 7.56724Z" fill="black"/>
</svg>
