<svg width="17" height="17" viewBox="0 0 17 17" fill="none" xmlns="http://www.w3.org/2000/svg">
<g clip-path="url(#clip0_3_56)">
<path d="M4.64719 16.4716C4.64719 16.764 4.41117 17 4.1188 17H0.560981C0.268606 17 0.0325928 16.764 0.0325928 16.4716V12.912C0.0325928 12.6197 0.268606 12.3836 0.560981 12.3836H4.12056C4.41293 12.3836 4.64895 12.6197 4.64895 12.912V16.4716H4.64719Z" fill="black"/>
<path d="M10.8065 16.4716C10.8065 16.764 10.5705 17 10.2781 17H6.72028C6.42791 17 6.19189 16.764 6.19189 16.4716V12.912C6.19189 12.6197 6.42791 12.3836 6.72028 12.3836H10.2781C10.5705 12.3836 10.8065 12.6197 10.8065 12.912V16.4716Z" fill="black"/>
<path d="M16.9657 16.4716C16.9657 16.764 16.7297 17 16.4373 17H12.8795C12.5871 17 12.3511 16.764 12.3511 16.4716V12.912C12.3511 12.6197 12.5871 12.3836 12.8795 12.3836H16.439C16.7314 12.3836 16.9674 12.6197 16.9674 12.912V16.4716H16.9657Z" fill="black"/>
<path d="M4.64719 10.2789C4.64719 10.5713 4.41117 10.8073 4.1188 10.8073H0.560981C0.268606 10.8073 0.0325928 10.5713 0.0325928 10.2789V6.72111C0.0325928 6.42873 0.268606 6.19272 0.560981 6.19272H4.12056C4.41293 6.19272 4.64895 6.42873 4.64895 6.72111V10.2789H4.64719Z" fill="black"/>
<path d="M10.8065 10.2789C10.8065 10.5713 10.5705 10.8073 10.2781 10.8073H6.72028C6.42791 10.8073 6.19189 10.5713 6.19189 10.2789V6.72111C6.19189 6.42873 6.42791 6.19272 6.72028 6.19272H10.2781C10.5705 6.19272 10.8065 6.42873 10.8065 6.72111V10.2789Z" fill="black"/>
<path d="M16.9657 10.2789C16.9657 10.5713 16.7297 10.8073 16.4373 10.8073H12.8795C12.5871 10.8073 12.3511 10.5713 12.3511 10.2789V6.72111C12.3511 6.42873 12.5871 6.19272 12.8795 6.19272H16.439C16.7314 6.19272 16.9674 6.42873 16.9674 6.72111V10.2789H16.9657Z" fill="black"/>
<path d="M4.1188 4.61633H0.560981C0.268606 4.61633 0.0325928 4.38032 0.0325928 4.08794V0.528367C0.0325928 0.235957 0.268606 -2.14577e-05 0.560981 -2.14577e-05H4.12056C4.41293 -2.14577e-05 4.64895 0.235957 4.64895 0.528367V4.08794C4.64719 4.37856 4.41117 4.61633 4.1188 4.61633Z" fill="black"/>
<path d="M10.2781 4.61633H6.72028C6.42791 4.61633 6.19189 4.38032 6.19189 4.08794V0.528367C6.19189 0.235957 6.42791 -2.14577e-05 6.72028 -2.14577e-05H10.2781C10.5705 -2.14577e-05 10.8065 0.235957 10.8065 0.528367V4.08794C10.8065 4.37856 10.5705 4.61633 10.2781 4.61633Z" fill="black"/>
<path d="M16.4373 4.61633H12.8795C12.5871 4.61633 12.3511 4.38032 12.3511 4.08794V0.528367C12.3511 0.235957 12.5871 -2.14577e-05 12.8795 -2.14577e-05H16.439C16.7314 -2.14577e-05 16.9674 0.235957 16.9674 0.528367V4.08794C16.9657 4.37856 16.7297 4.61633 16.4373 4.61633Z" fill="black"/>
</g>
<defs>
<clipPath id="clip0_3_56">
<rect width="17" height="17" fill="white" transform="matrix(1 0 0 -1 0 17)"/>
</clipPath>
</defs>
</svg>
