<svg width="22" height="23" viewBox="0 0 22 23" fill="none" xmlns="http://www.w3.org/2000/svg">
<path d="M19.2509 3.59247H5.50574C4.74662 3.59247 4.13123 4.23584 4.13123 5.02946C4.13123 5.82309 4.74662 6.46646 5.50574 6.46646H19.2509C20.01 6.46646 20.6254 5.82309 20.6254 5.02946C20.6254 4.23584 20.01 3.59247 19.2509 3.59247Z" fill="black"/>
<path d="M2.75673 5.02945C2.75519 4.64897 2.60936 4.28464 2.35125 4.01637C1.81515 3.45922 0.949286 3.45922 0.413182 4.01637C0.15503 4.28464 0.00920282 4.64897 0.00769944 5.02945C-0.00256648 5.12254 -0.00256648 5.21658 0.00769944 5.30967C0.0232487 5.4033 0.0485913 5.49486 0.0832979 5.5827C0.120195 5.66779 0.163879 5.74952 0.213877 5.82699C0.263231 5.90755 0.320832 5.98223 0.385692 6.04972C0.448232 6.11483 0.517344 6.17267 0.591869 6.22216C0.664246 6.27726 0.742722 6.32311 0.825537 6.35867C0.916642 6.40807 1.01376 6.44436 1.11419 6.46645C1.20323 6.47687 1.29317 6.47687 1.38222 6.46645C1.74517 6.46676 2.09353 6.31696 2.35125 6.04972C2.41611 5.98223 2.47371 5.90755 2.52307 5.82699C2.57306 5.74952 2.61675 5.66779 2.65364 5.5827C2.6975 5.49594 2.73208 5.40438 2.75673 5.30967C2.767 5.21658 2.767 5.12254 2.75673 5.02945Z" fill="black"/>
<path d="M2.75672 11.4959C2.76695 11.4029 2.76695 11.3088 2.75672 11.2157C2.73297 11.123 2.69835 11.0337 2.65364 10.9499C2.61824 10.8617 2.57447 10.7775 2.52306 10.6984C2.47542 10.6188 2.4176 10.5462 2.35124 10.4829C1.81514 9.92572 0.949277 9.92572 0.413173 10.4829C0.155021 10.7511 0.00919381 11.1155 0.00769043 11.4959C0.0103536 11.6853 0.0452749 11.8726 0.110779 12.0492C0.145228 12.1342 0.186635 12.2159 0.234486 12.2935C0.28676 12.3716 0.346638 12.4438 0.413173 12.509C0.473909 12.5783 0.543236 12.6387 0.61935 12.6887C0.691727 12.7438 0.770161 12.7896 0.853018 12.8252C0.936821 12.862 1.02449 12.8886 1.11418 12.9042C1.2021 12.9248 1.29209 12.9345 1.38221 12.9329C1.47125 12.9437 1.56119 12.9437 1.65024 12.9329C1.73769 12.9173 1.82308 12.8907 1.90452 12.8539C1.98961 12.8186 2.07037 12.7728 2.14506 12.7174C2.22118 12.6675 2.2905 12.607 2.35124 12.5378C2.41748 12.4743 2.47529 12.4018 2.52306 12.3222C2.57589 12.2466 2.61974 12.1646 2.65364 12.0779C2.70058 11.9825 2.73525 11.8811 2.75672 11.7762C2.76729 11.6831 2.76729 11.589 2.75672 11.4959Z" fill="black"/>
<path d="M2.75681 17.9624C2.76699 17.8693 2.76699 17.7753 2.75681 17.6822C2.73305 17.5872 2.69843 17.4955 2.65372 17.4092C2.61682 17.3241 2.57314 17.2424 2.52314 17.1649C2.47538 17.0853 2.41756 17.0129 2.35133 16.9494C1.81522 16.3922 0.949362 16.3922 0.413257 16.9494C0.347023 17.0129 0.289207 17.0853 0.241443 17.1649C0.191444 17.2424 0.147761 17.3241 0.110863 17.4092C0.0752119 17.4967 0.0498263 17.5884 0.035265 17.6822C0.0158929 17.7742 0.00670085 17.8682 0.00777469 17.9624C0.00932102 18.3429 0.155149 18.7072 0.413257 18.9755C0.473994 19.0448 0.543321 19.1052 0.619435 19.1551C0.691812 19.2103 0.770245 19.2561 0.853103 19.2917C0.936905 19.3285 1.02457 19.3551 1.11426 19.3707C1.20219 19.3913 1.29217 19.401 1.38229 19.3994C1.47133 19.4102 1.56128 19.4102 1.65032 19.3994C1.73778 19.3838 1.82317 19.3572 1.90461 19.3204C1.9897 19.2851 2.07045 19.2393 2.14515 19.1839C2.22126 19.1339 2.29059 19.0735 2.35133 19.0043C2.41756 18.9408 2.47538 18.8683 2.52314 18.7887C2.57602 18.7131 2.61987 18.6311 2.65372 18.5444C2.70062 18.449 2.73529 18.3476 2.75681 18.2427C2.76737 18.1496 2.76737 18.0555 2.75681 17.9624Z" fill="black"/>
<path d="M20.6254 10.059H5.50574C4.74662 10.059 4.13123 10.7023 4.13123 11.496C4.13123 12.2896 4.74662 12.9329 5.50574 12.9329H20.6254C21.3845 12.9329 21.9999 12.2896 21.9999 11.496C21.9999 10.7023 21.3845 10.059 20.6254 10.059Z" fill="black"/>
<path d="M14.4401 16.5255H5.50574C4.74662 16.5255 4.13123 17.1688 4.13123 17.9624C4.13123 18.7561 4.74662 19.3994 5.50574 19.3994H14.4401C15.1992 19.3994 15.8146 18.7561 15.8146 17.9624C15.8146 17.1688 15.1992 16.5255 14.4401 16.5255Z" fill="black"/>
</svg>
