<svg width="162" height="162" viewBox="0 0 162 162" fill="none" xmlns="http://www.w3.org/2000/svg">
<g clip-path="url(#clip0_71_99)">
<path d="M81 118.209C101.503 118.209 118.209 101.503 118.209 81C118.209 60.4969 101.503 43.7906 81 43.7906C60.4969 43.7906 43.7906 60.4969 43.7906 81C43.7906 101.503 60.4969 118.209 81 118.209ZM56.9531 77.2031C57.9656 76.1906 59.4844 75.6844 60.75 75.6844C62.2687 75.6844 63.5344 76.1906 64.5469 77.2031L74.1656 86.8219L97.2 63.7875C98.2125 62.775 99.7313 62.2687 100.997 62.2687C102.263 62.2687 103.781 62.775 104.794 63.7875C105.806 64.8 106.312 66.3187 106.312 67.5844C106.312 68.85 105.806 70.3688 104.794 71.3812L78.2156 98.2125C77.7094 98.7188 76.95 99.225 76.1906 99.4781C75.4313 99.7312 74.925 99.7313 74.1656 99.7313C73.9125 99.7313 73.4062 99.7313 73.1531 99.7313C72.1406 99.4781 71.1281 98.9719 70.3688 98.2125L56.9531 84.7969C55.9406 83.7844 55.4344 82.2656 55.4344 81C55.4344 79.4812 55.9406 78.2156 56.9531 77.2031ZM55.6875 7.59375C55.6875 5.0625 57.9656 2.78437 60.75 2.78437C63.2812 2.78437 65.5594 4.80937 65.5594 7.59375C65.5594 10.3781 63.2812 12.6562 60.4969 12.6562C57.9656 12.6562 55.6875 10.3781 55.6875 7.59375ZM36.9562 15.9469C36.9562 13.4156 38.9813 11.1375 41.7656 11.1375C44.2969 11.1375 46.575 13.4156 46.575 15.9469C46.575 18.4781 44.55 20.7563 41.7656 20.7563C38.9813 20.7563 36.9562 18.4781 36.9562 15.9469ZM162 81C162 125.55 125.55 162 81 162C36.45 162 0 125.55 0 81C0 60.2438 7.84687 40.5 22.0219 25.5656C24.0469 23.5406 27.0844 23.5406 29.1094 25.3125C31.1344 27.3375 31.1344 30.375 29.3625 32.4C16.9594 45.5625 10.125 62.775 10.125 81C10.125 119.981 42.0187 151.875 81 151.875C88.0875 151.875 94.9219 150.863 101.25 148.837L72.9 130.866C48.8531 127.069 30.375 106.059 30.375 81C30.375 79.4812 31.3875 78.4688 32.9062 78.4688C34.425 78.4688 35.4375 79.4812 35.4375 81C35.4375 106.059 55.9406 126.562 81 126.562C106.059 126.562 126.562 106.059 126.562 81C126.562 55.9406 106.059 35.4375 81 35.4375C79.4812 35.4375 78.4688 34.425 78.4688 32.9062C78.4688 31.3875 79.4812 30.375 81 30.375C98.2125 30.375 113.4 38.9813 122.513 52.1437L150.863 70.1156C145.8 36.1969 116.438 10.125 81 10.125C78.2156 10.125 75.9375 7.84688 75.9375 5.0625C75.9375 2.27813 78.2156 0 81 0C125.55 0 162 36.45 162 81Z" fill="#94CF58"/>
</g>
<defs>
<clipPath id="clip0_71_99">
<rect width="162" height="162" fill="white"/>
</clipPath>
</defs>
</svg>
